<svg fill="none" height="31" viewBox="0 0 100 31" width="100" xmlns="http://www.w3.org/2000/svg"><path d="m4.48 23.192c-.61867 0-1.12-.192-1.504-.576-.36267-.384-.544-.8853-.544-1.504v-18.784c0-.61867.18133-1.10933.544-1.471999.384-.384.88533-.576 1.504-.576.64 0 1.14133.192 1.504.576.384.362669.576.853329.576 1.471999v18.784c0 .6187-.192 1.12-.576 1.504-.36267.384-.864.576-1.504.576zm15.688-16.224c1.8773 0 3.2747.53333 4.192 1.6s1.376 2.6773 1.376 4.832v7.872c0 .5973-.1813 1.0667-.544 1.408-.3413.3413-.8213.512-1.44.512s-1.1093-.1707-1.472-.512-.544-.8107-.544-1.408v-7.648c0-1.216-.2347-2.1013-.704-2.656-.448-.5547-1.1627-.832-2.144-.832-1.152 0-2.08.3627-2.784 1.088-.6827.7253-1.024 1.696-1.024 2.912v7.136c0 .5973-.1813 1.0667-.544 1.408s-.8533.512-1.472.512-1.1093-.1707-1.472-.512c-.3413-.3413-.512-.8107-.512-1.408v-12.384c0-.55467.1813-1.00267.544-1.344s.8533-.512 1.472-.512c.5547 0 1.0027.17067 1.344.512.3627.32.544.74667.544 1.28v.864c.5333-.87467 1.248-1.54667 2.144-2.016s1.9093-.704 3.04-.704zm15.2947 16.288c-2.3253 0-4.2026-.4587-5.632-1.376-.6826-.4053-1.0239-.9813-1.0239-1.728 0-.4267.1173-.768.352-1.024.2346-.2773.5226-.416.8639-.416.3627 0 .8641.1707 1.5041.512.6826.32 1.3013.5653 1.856.736.5759.1707 1.3013.256 2.176.256.896 0 1.5893-.1493 2.08-.448.5119-.2987.7679-.7147.7679-1.248 0-.3627-.1066-.6507-.3199-.864-.1921-.2133-.5547-.4053-1.0881-.576-.512-.192-1.3013-.4053-2.3679-.64-1.8987-.384-3.264-.928-4.0961-1.632-.8106-.704-1.2159-1.6747-1.2159-2.912 0-.9387.2773-1.7813.8319-2.528.5547-.768 1.312-1.35467 2.272-1.76.9814-.42667 2.0907-.64 3.328-.64.8961 0 1.7601.11733 2.592.352.832.21333 1.5787.53333 2.2401.96.6826.42667 1.0239.992 1.0239 1.696 0 .4267-.1173.7893-.3519 1.088-.2347.2773-.5227.416-.8641.416-.2346 0-.4693-.0427-.7039-.128-.2134-.1067-.4907-.256-.8321-.448-.6186-.32-1.1519-.5547-1.5999-.704-.448-.1707-1.0027-.256-1.664-.256-.7894 0-1.4187.16-1.888.48-.4481.32-.6721.7573-.6721 1.312 0 .5333.2347.9387.704 1.216.4694.2773 1.376.5547 2.7201.832 1.4293.2987 2.5493.64 3.3599 1.024.8107.384 1.3867.864 1.7281 1.44.3626.576.544 1.312.544 2.208 0 1.4507-.6081 2.6133-1.8241 3.488-1.1946.8747-2.7946 1.312-4.8 1.312zm11.8513-.064c-.576 0-1.056-.16-1.44-.48-.3627-.3413-.544-.8213-.544-1.44v-12.352c0-.61867.1813-1.088.544-1.408.384-.32.864-.48 1.44-.48s1.056.16 1.44.48.576.78933.576 1.408v12.352c0 .6187-.192 1.0987-.576 1.44-.384.32-.864.48-1.44.48zm0-19.008c-.7253 0-1.3013-.192-1.728-.576-.4267-.40533-.64-.928-.64-1.568s.2133-1.152.64-1.536 1.0027-.5760005 1.728-.5760005c.704 0 1.2693.1920005 1.696.5760005.448.384.672.896.672 1.536s-.2133 1.16267-.64 1.568c-.4267.384-1.0027.576-1.728.576zm19.389 2.848c.5973 0 1.0773.17067 1.44.512s.544.8.544 1.376v12.64c0 2.4533-.6827 4.3093-2.048 5.568s-3.3813 1.888-6.048 1.888c-2.3253 0-4.2667-.4373-5.824-1.312-.7893-.4693-1.184-1.0347-1.184-1.696 0-.4693.1067-.8427.32-1.12.2347-.2773.5333-.416.896-.416.192 0 .4267.0427.704.128.2773.1067.5653.224.864.352.768.32 1.4507.5653 2.048.736.6187.1707 1.3227.256 2.112.256 2.7947 0 4.192-1.3653 4.192-4.096v-2.048c-.4693.8747-1.152 1.5573-2.048 2.048-.896.4693-1.92.704-3.072.704-1.3653 0-2.5813-.32-3.648-.96-1.0453-.6613-1.8667-1.5787-2.464-2.752s-.896-2.528-.896-4.064.288-2.8907.864-4.064c.5973-1.19467 1.4293-2.112 2.496-2.752 1.0667-.66133 2.2827-.992 3.648-.992 1.152 0 2.176.24533 3.072.736.896.46933 1.5787 1.14133 2.048 2.016v-.832c0-.55467.1813-1.00267.544-1.344s.8427-.512 1.44-.512zm-6.048 12.416c1.28 0 2.272-.416 2.976-1.248.7253-.832 1.088-1.9733 1.088-3.424 0-1.472-.3627-2.624-1.088-3.456-.704-.832-1.696-1.248-2.976-1.248-1.2587 0-2.2507.416-2.976 1.248s-1.088 1.984-1.088 3.456c0 1.4507.3627 2.592 1.088 3.424s1.7173 1.248 2.976 1.248zm21.327-12.48c3.6693 0 5.504 2.144 5.504 6.432v7.872c0 .5973-.1813 1.0667-.544 1.408-.3413.3413-.8213.512-1.44.512s-1.1093-.1707-1.472-.512-.544-.8107-.544-1.408v-7.872c0-1.1307-.2347-1.952-.704-2.464-.448-.5333-1.1627-.8-2.144-.8-1.152 0-2.08.3627-2.784 1.088-.6827.7253-1.024 1.696-1.024 2.912v7.136c0 .5973-.1813 1.0667-.544 1.408s-.8533.512-1.472.512-1.1093-.1707-1.472-.512c-.3413-.3413-.512-.8107-.512-1.408v-19.136c0-.55467.1813-1.00267.544-1.344.384-.341333.8747-.511999 1.472-.511999s1.0773.16 1.44.479999c.3627.32.544.75733.544 1.312v7.456c.5333-.832 1.2373-1.46133 2.112-1.888.896-.448 1.9093-.672 3.04-.672zm17.6948 13.248c1.0662.064 1.6002.544 1.6002 1.44 0 .512-.214.9067-.64 1.184-.406.256-.9922.3627-1.7603.32l-.864-.064c-3.584-.256-5.376-2.176-5.376-5.76v-6.976h-1.6c-.576 0-1.024-.128-1.3439-.384-.2987-.256-.4481-.62933-.4481-1.12s.1494-.864.4481-1.12c.3199-.256.7679-.384 1.3439-.384h1.6v-2.944c0-.576.1814-1.03467.544-1.376.3627-.34133.8534-.512 1.4721-.512.5973 0 1.0773.17067 1.44.512.3626.34133.544.8.544 1.376v2.944h2.7199c.576 0 1.0133.128 1.3123.384.32.256.48.62933.48 1.12s-.16.864-.48 1.12c-.299.256-.7363.384-1.3123.384h-2.7199v7.264c0 1.5787.7253 2.4213 2.1759 2.528z" fill="#09f" transform="translate(-2 1)"/></svg>