<svg height="200" viewBox="0 0 200 200" width="200" xmlns="http://www.w3.org/2000/svg"><g fill="none"><path d="m0 0h200v200h-200z" fill="#cf649a"/><path d="m142.615192 106.307951c-4.086563.023059-7.625206 1.004519-10.5931 2.465864-1.095838-2.168846-2.191676-4.06396-2.374087-5.47919-.20547-1.643756-.4566-2.648502-.20547-4.6116503.250901-1.9636046 1.392399-4.7488591 1.392399-4.9771587-.023058-.2054696-.251357-1.2099877-2.602615-1.2328176-2.351256-.02283-4.383351.4565991-4.61165 1.0730079-.228301.6164088-.684899 2.031866-.981689 3.4929832-.410939 2.1460159-4.702971 9.7483915-7.145776 13.7436335-.799048-1.552437-1.483947-2.922235-1.621155-4.0183-.205241-1.643529-.4566-2.648276-.205241-4.611424.251129-1.963604 1.392627-4.7486302 1.392627-4.9769297-.02283-.2054697-.25113-1.2099877-2.602387-1.2328177-2.351713-.0228299-4.383351.4565991-4.611651 1.073008-.228299.6164088-.479429 2.077526-.981688 3.4929824-.479657 1.415458-6.187146 14.108913-7.6710934 17.419257-.7533886 1.689416-1.415229 3.036384-1.8948864 3.949582-.4794291.913199-.02283.06849-.0684898.15981-.4109393.776218-.6392388 1.209987-.6392388 1.209987v.023059c-.3196194.570749-.6620687 1.118439-.8221067 1.118439-.1141498 0-.3424493-1.529606.0456599-3.629734.8447083-4.40641 2.8994044-11.277998 2.8768028-11.529128 0-.11415.3878808-1.324365-1.3243658-1.940546-1.6665868-.616409-2.2599374.410939-2.3971453.410939-.1369798 0-.2511296.365279-.2511296.365279s1.8492265-7.739126-3.5386431-7.739126c-3.3788335 0-8.0361445 3.675623-10.34197 7.031626-1.4611172.799048-4.5659912 2.488237-7.8535048 4.292032-1.2556476.684898-2.5569551 1.415457-3.7897727 2.077526l-.2509012-.274416c-6.5293673-6.963137-18.606414-11.894407-18.1041549-21.2546891.1826396-3.4016634 1.3697973-12.373836 23.1954633-23.240895 17.8758554-8.9036828 32.1902375-6.4608775 34.6784745-1.0273481 3.538643 7.7621851-7.648035 22.1907172-26.2313908 24.2682431-7.0772863.7990485-10.7987974-1.9405462-11.7345973-2.9678942-.9816881-1.073008-1.1186678-1.1186679-1.4839471-.9131983-.5935788.3196194-.2282996 1.2784775 0 1.8492264.547919 1.4382873 2.8309145 3.9952423 6.712007 5.2737198 3.4014351 1.1186679 11.7117673 1.7350767 21.7569479-2.1460158 11.2551683-4.3605216 20.0447013-16.4603982 17.4649163-26.5740686-2.625445-10.2963101-19.702252-13.6751435-35.8430307-7.9448246-9.6116398 3.4244933-20.0220996 8.766703-27.5103251 15.7754995-8.9036828 8.3101038-10.3191401 15.5700299-9.7255612 18.583584 2.0777543 10.7529089 16.8941673 17.7617049 22.8299559 22.9441049-.2967895.159582-.5707489.319391-.8218785.4566-2.9678942 1.460889-14.2687224 7.374076-17.0996369 13.629255-3.1961938 7.077286.5022591 12.168595 2.9678942 12.853494 7.6252053 2.123185 15.4330502-1.689417 19.6565921-7.967655 4.2004835-6.278238 3.6984528-14.428532 1.7579065-18.149815l-.0687181-.13698 2.3286554-1.369797c1.5070055-.890368 2.9909526-1.712247 4.2920317-2.420204-.7303302 1.986207-1.2556475 4.337692-1.5293787 7.762185-.3196194 4.018301 1.3241374 9.223302 3.4929832 11.277999.9588582.890139 2.1003559.913198 2.8080846.913198 2.5112951 0 3.6527929-2.077754 4.9084405-4.565991 1.552437-3.036385 2.9222344-6.552197 2.9222344-6.552197s-1.7122467 9.520091 2.9678942 9.520091c1.7122467 0 3.4244934-2.214506 4.2007119-3.356004v.02283s.0456599-.06849.1369797-.228299c.0957914-.14164.1871553-.286223.2739595-.433541v-.04566c.6848987-1.187158 2.2145054-3.903922 4.4975014-8.401424 2.944836-5.798808 5.775979-13.058734 5.775979-13.058734s.273959 1.780736 1.118668 4.70297c.50203 1.735306 1.597868 3.629963 2.442576 5.47919-.684898.958858-1.095837 1.507005-1.095837 1.507005l.022829.022831c-.54769.730558-1.164327 1.507004-1.803337 2.282994-2.328656 2.785255-5.11391 5.958848-5.47919 6.872046-.433769 1.072779-.342449 1.871828.502259 2.511295.616409.456599 1.712246.54769 2.876575.456599 2.100356-.137208 3.561473-.662069 4.292031-.981916 1.141498-.41094 2.442805-1.027348 3.698453-1.940547 2.282996-1.689188 3.675623-4.086333 3.538643-7.282527-.06849-1.757907-.639239-3.492984-1.346967-5.13674.20547-.29679.411167-.593807.616409-.913198 3.607132-5.273949 6.392387-11.072529 6.392387-11.072529s.27396 1.780736 1.118668 4.70297c.433541 1.483948 1.301307 3.105103 2.077526 4.7032-3.378834 2.762424-5.502019 5.958618-6.232578 8.058974-1.346967 3.881093-.296789 5.639 1.689417 6.049939.89014.182639 2.168845-.2283 3.127475-.639239 1.187158-.388109 2.625446-1.050407 3.949811-2.031866 2.282995-1.689417 4.474671-4.040902 4.360521-7.214267-.068489-1.461117-.456598-2.899403-.981687-4.269201 2.876574-1.187158 6.597628-1.872057 11.323658-1.301307 10.15933 1.187157 12.168366 7.533885 11.780486 10.18216-.38811 2.648503-2.511296 4.109392-3.219253 4.565991-.707728.433769-.936028.593807-.867538.913199.09132.479656.410939.456598 1.027348.365507.844708-.137208 5.342209-2.168846 5.524849-7.054228.27396-6.279151-5.684659-13.128138-16.254928-13.059877zm-78.3524088 26.41426c-3.3560036 3.675622-8.0818044 5.068249-10.0908405 3.881092-2.1688458-1.255648-1.3243657-6.666347 2.8080845-10.57027 2.5112952-2.374315 5.7759789-4.565991 7.9219947-5.912958.4794291-.29679 1.2099877-.730331 2.077526-1.255648.1369798-.091092.2282995-.136979.2282995-.136979.1598098-.09132.3424494-.20547.525089-.31962 1.5296071 5.570509.0684899 10.45612-3.4701532 14.314383zm24.5422024-16.688698c-1.1643277 2.853744-3.6299629 10.18216-5.11391 9.771221-1.2787059-.342449-2.0546961-5.890129-.2513579-11.369318.9131983-2.762653 2.8537445-6.049939 3.9952423-7.328644 1.8494548-2.054696 3.8582626-2.739595 4.3607499-1.894886.5935788 1.096065-2.2601656 9.04089-2.9907243 10.821627zm20.2501704 9.679901c-.502258.251358-.958858.433769-1.164327.297018-.15981-.09132.205241-.433769.205241-.433769s2.534125-2.716765 3.538643-3.972412c.570749-.730331 1.255648-1.575039 1.986206-2.534126v.27396c.000228 3.287285-3.150305 5.478961-4.565763 6.369329zm15.615462-3.561473c-.36528-.27396-.319391-1.118668.913199-3.766942.479656-1.050179 1.575266-2.808085 3.470152-4.474672.2283.684898.365508 1.346739.34245 1.963376-.022602 4.109392-2.944836 5.638999-4.725801 6.278238z" fill="#fff"/></g></svg>