<svg height="200" viewBox="0 0 200 200" width="200" xmlns="http://www.w3.org/2000/svg"><g fill="none"><path d="m0 0h200v200h-200z" fill="#563d7c"/><path d="m83.2715115 91.6331335v-19.434824h17.1071265c1.62971 0 3.20045.1356304 4.713292.4074274 1.512842.2712608 2.851456.7558851 4.015305 1.4544087 1.163313.6985236 2.094498 1.668308 2.793022 2.9093534.697987 1.2415814 1.047517 2.8321567 1.047517 4.7711895 0 3.4915457-1.047517 6.0133071-3.142551 7.5647478-2.094499 1.5519768-4.771191 2.3276972-8.030073 2.3276972zm-18.2715115-33.6331335v83.09375h40.266695c3.724209 0 7.351385-.465325 10.881529-1.396511 3.530144-.931187 6.67216-2.366296 9.426583-4.305864 2.753888-1.93957 4.945955-4.442032 6.575128-7.506315 1.62971-3.064819 2.444029-6.691995 2.444029-10.881528 0-5.198453-1.260881-9.639947-3.782106-13.325022-2.521761-3.6856091-6.343001-6.2652681-11.463721-7.739512 3.724209-1.7841033 6.537066-4.073202 8.438037-6.8662242 1.900434-2.7930222 2.850919-6.2840319 2.850919-10.4741012 0-3.8791379-.640089-7.1374851-1.920269-9.7755776-1.28018-2.6375565-3.084119-4.7518903-5.411816-6.3424656-2.327161-1.5905751-5.120183-2.7351246-8.379066-3.4331121-3.258348-.6985235-6.866224-1.0475173-10.823096-1.0475173zm18.2715115 68.89544v-22.810038h19.9001495c3.95687 0 7.138021.91135 9.543451 2.735125 2.404894 1.823238 3.607877 4.868221 3.607877 9.135488 0 2.172767-.368829 3.95687-1.105951 5.353381-.737122 1.396512-1.726206 2.502462-2.967788 3.316781-1.241045.814855-2.67669 1.396511-4.305864 1.746041-1.62971.348457-3.33608.523222-5.120719.523222z" fill="#fff"/></g></svg>