<svg height="200" viewBox="0 0 200 200" width="200" xmlns="http://www.w3.org/2000/svg"><g fill="none"><path d="m0 0h200v200h-200z" fill="#d34a47"/><g fill="#fff" transform="translate(73 40)"><path d="m41.661801 116.377753 1.1505645-19.2094656 3.1769321-5.4337955s-7.230727 2.963734-19.3361418 2.963734c-12.1056269 0-19.22674596-2.9089289-19.22674596-2.9089289l3.56045356 5.9274682 1.2595364 18.6609878c0 2.000606 6.5847401 3.622247 14.7078066 3.622247 8.1226424 0 14.7075946-1.621641 14.7075946-3.622247m-3.629356-89.7054217 2.4149771-9.5643723 13.3736436-14.09982849-3.5248363-3.00813051-14.1587072 15.019835-2.8040109 11.4269024c-2.1103576-.0708503-4.2217574-.1060468-6.3332993-.1055745-14.9117578 0-27.000212 1.7027875-27.000212 3.8028072 0 2.100232 12.0884542 3.8028072 27.000212 3.8028072 14.9115458 0 26.999788-1.7025752 26.999788-3.8028072 0-1.5464438-6.5561191-2.87749-15.967555-3.4716388"/><path d="m37.7459843 31.9127196s-.5660849.0820439-2.2312968.0866431c-1.6656708.0044508-2.8483222-.006973-3.3194095-.2844089-.1266635-.0744774-.1959613-.2223938-.1952729-.3225378.0013768-.1906444.2106469-.302954.4772828-.3732773l.2521796.2557751c-.1096832.0244796-.1723266.0534101-.172556.0842693-.0009179.1448007 1.7030732.2439062 3.0064222.2332242 1.3035784-.0103853 2.8786114-.0798185 2.8799882-.2225422 0-.0431732-.1190912-.0838242-.3262962-.1158703l.2510324-.2539948c.3377693.0678012.632629.1988044.6319407.4255006-.0032125.3854431-.7618167.4440458-1.2540145.487219"/><path d="m53.8959783 3.17369538c.3380621-.38693473-.1749994-1.37665968-1.1459157-2.21030124-.9713426-.83321916-2.0328493-1.19523123-2.3715509-.8082965-.3382754.38693472.1749993 1.37665967 1.1463419 2.20987882.9709163.83343036 2.0328494 1.19586485 2.3711247.80871892m-12.845297 66.04101322c-.3186652-3.038029 6.7062499-7.437933 4.9033936-7.5788094-3.8811072.2198686-5.8127083 4.5067758-7.7654118 8.9966548-.7155578 1.6455286-3.1640573 8.6623113-4.7699592 7.7984668-1.6054757-.8634223 2.0814483-6.6334385 3.1148187-10.0600918-1.1923832.866379-5.5652367 4.2328378-6.6921817 1.0801224-1.8118086 1.5247171-5.6833239 2.3507551-5.2465715-1.6543994-.9638821 1.6917834-3.1271817 4.0537326-5.7238232 3.0722448-3.410037-1.2885856 1.9759372-12.0520029 3.3151835-11.5089847 1.3394595.5428069-.2702792 2.9947311-.6918977 3.9468609-.9272197 2.0954036-1.9983184 4.7296011-1.2827606 5.2688175 1.2258485.9238277 4.5617079-3.4948739 4.6358855-3.59203.6239016-.8167449 2.4013925-6.1601191 3.8340002-5.5465572 1.4326078.6135619-3.5733129 7.6685731-1.7016081 9.068677.3774958.2825975 1.9220093-.1742474 2.8615919-1.1815026.6079152-.6515796.3988111-2.09477 2.4252658-6.8832984 2.0264547-4.7883172 3.8325082-10.7515896 5.2222719-10.2972792 1.3897639.4540991.2442745 3.5147274-.2542926 4.655678-2.3395778 5.3549907-6.3852399 14.2018983-4.4772989 13.5321548 1.9079411-.6695322 2.9014517-.7088171 4.7697462-2.8751869 1.8682944-2.1663697 1.7821802-5.7347443 3.0274256-5.6589203 1.2456717.0760352 1.0365677 1.2201539.7345285 2.0913906 1.2256353-1.3897546 5.8097243-4.3166877 6.9164197-1.4178454 1.3108968 3.4319336-6.5585342 8.3892179-4.596452 8.1364009 1.9130568-.2464809 5.0123154-2.1915037 6.3355751-3.9599559l3.6423748-32.44718s-3.6651823 3.0055028-26.9829463 3.0055028c-23.31797729 0-26.6039587-2.942985-26.6039587-2.942985l3.10096378 29.6165583c1.64597487-4.635402 5.55457898-14.0113879 11.71558102-13.6966867 2.8025482.1431997 6.5438265 5.4903757 3.3390567 5.6715929-1.3565117.0764576-1.4942092-2.669047-3.1005375-3.0722448-1.1591312-.2910459-2.7729198.6427087-3.8158821 1.6543993-2.07995629 2.0170452-6.55341844 9.9751857-5.96234252 13.9427451.75307294 5.0582422 7.04431202-1.7576806 8.10880292-3.7812731.7496625-1.425449 1.2561162-5.6487823 2.8956965-5.205666 1.6397934.4431162-.1430263 4.8016233-1.3315728 8.6551298-1.3351964 4.327037-2.0371124 8.8914726-3.7105841 8.3664071-1.67368485-.5246425 1.0525543-6.1106959.9538639-7.0894379-1.5730762 1.4381214-4.47111733 5.0789406-8.17871731 3.2769062l1.92584601 18.3916494s5.118466 4.0072667 20.5373839 4.0072667c15.4189178 0 20.7268777-3.9447485 20.7268777-3.9447485l2.3913742-21.3018974c-1.9565401 1.8877853-8.1486626 5.2400931-8.545129 1.4613545"/></g></g></svg>